PathFileType	4	(X/Y/Z)	/Users/visionmauri/1_8_1_f_Sports2D/1_8_1_f_Sports2D_m_person00.trc
DataRate	CameraRate	NumFrames	NumMarkers	Units	OrigDataRate	OrigDataStartFrame	OrigNumFrames
30.0	30.0	7	22	m	30.0	268	358
Frame#	Time	Hip			RHip			RKnee			RAnkle			RBigToe			RSmallToe			RHeel			LHip			LKnee			LAnkle			LBigToe			LSmallToe			LHeel			Neck			Head			Nose			RShoulder			RElbow			RWrist			LShoulder			LElbow			LWrist			
		X1	Y1	Z1	X2	Y2	Z2	X3	Y3	Z3	X4	Y4	Z4	X5	Y5	Z5	X6	Y6	Z6	X7	Y7	Z7	X8	Y8	Z8	X9	Y9	Z9	X10	Y10	Z10	X11	Y11	Z11	X12	Y12	Z12	X13	Y13	Z13	X14	Y14	Z14	X15	Y15	Z15	X16	Y16	Z16	X17	Y17	Z17	X18	Y18	Z18	X19	Y19	Z19	X20	Y20	Z20	X21	Y21	Z21	X22	Y22	Z22
268	8.958356676003735	0.7966243511522514	0.8841729271454694	0.0301	0.7069045001189758	0.871084182359501	0.0301	0.7061729865265591	0.512546037079335	0.129	0.7400759426071716	0.2806076152434858	0.023	0.767686257791048	0.13776697883909378	0.2179	0.715152716861831	0.1518666818145931	0.1804	0.7549731751509607	0.2585664038004172	-0.0119	0.8864476975252761	0.881654933686055	0.0301	0.8890722612617927	0.5560357035959761	0.129	0.8981694337448434	0.17130750027776426	0.023	0.8707392780823469	0.06225831900427259	0.2179	0.9198902703461231	0.06813917164740782	0.1804	0.887040508029533	0.12643917498115068	-0.0119	0.8034665164673762	1.376029800624455	0.0008	0.8216331842596675	1.6177535837871506	0.0655	0.8199931355495816	1.4258836145742448	0.1076	0.6281022531384851	1.3382664246854892	-0.01275	0.5620356746098317	1.1168735727005543	0.0702	0.5258819523422874	0.9250470790151851	0.1076	0.9733619377756723	1.3311275668039966	-0.01275	1.0286272639897578	1.096204353848294	0.0702	1.0521827704505897	1.0041843669274781	0.1076
269	8.991783380018674	0.7994374017683167	0.8830913463543817	0.0301	0.7074679928673605	0.8665145626686828	0.0301	0.7009925916972412	0.5096128330538167	0.129	0.7398904371730385	0.2896958327619253	0.023	0.7667776116421955	0.13806717152892287	0.2179	0.7139337072957156	0.15360892132121146	0.1804	0.7543352081057727	0.27323949795647395	-0.0119	0.8897418707399268	0.8753160694064972	0.0301	0.8902130183504038	0.5472196325525811	0.129	0.8989289824251349	0.16756195890313869	0.023	0.8690518546438329	0.0580052290063684	0.2179	0.9188366025683539	0.06309826062789095	0.1804	0.8881724436954377	0.11734760370337487	-0.0119	0.8076085660875442	1.380488881921931	0.0008	0.8251849705596703	1.6192494164509041	0.0655	0.8222591736681507	1.4281023933496606	0.1076	0.6296999749515272	1.3391243188488113	-0.01275	0.5661422059582912	1.1182100941029034	0.0702	0.5255125850814483	0.9268158885242368	0.1076	0.9785355390589625	1.3326002729781485	-0.01275	1.034734570198152	1.0987046930586022	0.0702	1.0656153139982372	0.9393688849192555	0.1076
270	9.025210084033613	0.8014090873728947	0.8817570770579422	0.0301	0.708174372320928	0.8627418820425125	0.0301	0.6973644117832106	0.5090605580475243	0.129	0.7400730418985271	0.2924398730660045	0.023	0.7651673320673511	0.13585521381567162	0.2179	0.7120371313624786	0.15268034925385757	0.1804	0.7542824428765288	0.27782263352040903	-0.0119	0.8932510775128761	0.869472057134017	0.0301	0.8925556573570056	0.5400874115596784	0.129	0.9004615015746591	0.1663248066029133	0.023	0.8688242002474698	0.05482665022077856	0.2179	0.9198369578635638	0.05922111402061512	0.1804	0.8886072685724422	0.11229729764037664	-0.0119	0.8122796705509718	1.3848563025492853	0.0008	0.8271228750623347	1.6221603856539344	0.0655	0.824200116797414	1.43146950314682	0.1076	0.6314977936791674	1.340801771639206	-0.01275	0.5690995967944893	1.1186684634441395	0.0702	0.5257013445232144	0.9281603140451177	0.1076	0.9834901142642224	1.3340966040439464	-0.01275	1.0407029405946022	1.1014046482866013	0.0702	1.0748247247022602	0.900339482280711	0.1076
271	9.058636788048553	0.8023762870421484	0.8813146636148218	0.0301	0.7082210696741998	0.8638831700644153	0.0301	0.6955528662698262	0.5110087311557843	0.129	0.7400336881676388	0.2867530183037177	0.023	0.7634646355690867	0.12633691667387112	0.2179	0.7102969915888215	0.14438223329610153	0.1804	0.7546801091529494	0.26996106207429177	-0.0119	0.8954826153461509	0.8704411191217087	0.0301	0.8955941254424651	0.5390171571244669	0.129	0.9014911232826043	0.1677970429754044	0.023	0.8684689937425435	0.052068782641228564	0.2179	0.9204645816416002	0.05740731308124661	0.1804	0.88781246843574	0.11492602728426582	-0.0119	0.8161942980357936	1.387732851009347	0.0008	0.8271851564063961	1.6301015437704394	0.0655	0.8251628885889273	1.4364765214511241	0.1076	0.634081912539511	1.3434548531718395	-0.01275	0.5706443182608096	1.1196366456826146	0.0702	0.5263624253620393	0.9282302276136847	0.1076	0.9879618718140784	1.337746489114534	-0.01275	1.0458922184389434	1.103418953958727	0.0702	1.0791925702654097	0.8932722232115817	0.1076
272	9.092063492063492	0.8028633322191536	0.8829673731782118	0.0301	0.7076426084700107	0.8685710577698365	0.0301	0.6952225561826874	0.5147439191830562	0.129	0.7399796475586434	0.2712735811387101	0.023	0.7612218772669755	0.10904129652607604	0.2179	0.7079202676508087	0.128493000931758	0.1804	0.7553357070328178	0.24901441344091516	-0.0119	0.8964667533268693	0.8750683362724884	0.0301	0.8969927522805378	0.5425747012531843	0.129	0.9008602951372554	0.17027331189703845	0.023	0.8666380677212681	0.052593961094187215	0.2179	0.9203671953820662	0.06003753553989415	0.1804	0.8864330575423107	0.12147163966515856	-0.0119	0.818333179559308	1.3912242924886984	0.0008	0.8262244372425438	1.6389256917749506	0.0655	0.8253452361696296	1.441692796838397	0.1076	0.6365488821723161	1.3468913111596954	-0.01275	0.5716761067984231	1.1203624461502513	0.0702	0.5268455942694584	0.9273684749871771	0.1076	0.9918454641953027	1.3415347252820302	-0.01275	1.0502638177665151	1.103296395696239	0.0702	1.0819467129949953	0.8969242354648278	0.1076
273	9.125490196078431	0.8026053055574021	0.8854960609948415	0.0301	0.7074896378720897	0.872217312183855	0.0301	0.696342719216335	0.5181720663318652	0.129	0.7400064219813547	0.2462943874815592	0.023	0.7580039012504022	0.08678520068102273	0.2179	0.7042362325934469	0.107181866822022	0.1804	0.7556374726620562	0.217150487749453	-0.0119	0.8975788299951707	0.876214333693532	0.0301	0.8958664490034268	0.5445427856452838	0.129	0.8984882169164993	0.1726477864373467	0.023	0.8654296015552468	0.056033481387564706	0.2179	0.9211583115202939	0.06530018710134589	0.1804	0.8846541736887326	0.12603663507954663	-0.0119	0.8188662467462596	1.3957036721919218	0.0008	0.8254187365708299	1.6437247232214542	0.0655	0.8252971780321987	1.4454163766083306	0.1076	0.6381067644595055	1.3515985378969197	-0.01275	0.5733177539758405	1.120628083379475	0.0702	0.5267639030427765	0.9265284823224743	0.1076	0.9948094455188937	1.343028319193141	-0.01275	1.0543458918432669	1.100873106212277	0.0702	1.0852513762308789	0.8978630542243393	0.1076
274	9.15891690009337	0.8009046894900426	0.8867065317465129	0.0301	0.7073043911509473	0.8738074210345138	0.0301	0.6985908637929201	0.5206612628625662	0.129	0.7396911315575362	0.21387858506818042	0.023	0.7539261132276985	0.0603747284315959	0.2179	0.6992974322439351	0.0800904537119275	0.1804	0.7549419755060653	0.17806055172741928	-0.0119	0.898607120224736	0.8743550263438439	0.0301	0.8942415852329133	0.5417306165589114	0.129	0.8956004588445088	0.1746765830624987	0.023	0.8673322919440434	0.056172654101382634	0.2179	0.9227557688217778	0.06662962449047953	0.1804	0.8823402432077364	0.12654607298650827	-0.0119	0.8187795441585971	1.398632709596613	0.0008	0.8245944938706489	1.6463200366981523	0.0655	0.8249961955251716	1.447864896095539	0.1076	0.6388221208484921	1.35659078294361	-0.01275	0.5750621594782579	1.121939956427452	0.0702	0.5261420247543658	0.9260654692970126	0.1076	0.9964128479564743	1.3447294069839206	-0.01275	1.057067682720061	1.0974007682114921	0.0702	1.0880814286142202	0.8962225377739238	0.1076
